<mxfile host="65bd71144e">
    <diagram id="4vE5BlBnpJzTiKKsCa4W" name="Page-1">
        <mxGraphModel dx="1002" dy="787" grid="1" gridSize="10" guides="1" tooltips="1" connect="1" arrows="1" fold="1" page="1" pageScale="1" pageWidth="850" pageHeight="1100" math="0" shadow="0">
            <root>
                <mxCell id="0"/>
                <mxCell id="1" parent="0"/>
                <mxCell id="11" value="" style="edgeStyle=none;html=1;fontSize=21;" edge="1" parent="1" source="3" target="5">
                    <mxGeometry relative="1" as="geometry"/>
                </mxCell>
                <mxCell id="3" value="Organizations" style="sketch=0;points=[[0,0,0],[0.25,0,0],[0.5,0,0],[0.75,0,0],[1,0,0],[0,1,0],[0.25,1,0],[0.5,1,0],[0.75,1,0],[1,1,0],[0,0.25,0],[0,0.5,0],[0,0.75,0],[1,0.25,0],[1,0.5,0],[1,0.75,0]];outlineConnect=0;fontColor=#232F3E;fillColor=#DD344C;strokeColor=#ffffff;dashed=0;verticalLabelPosition=middle;verticalAlign=middle;align=left;html=1;fontSize=21;fontStyle=0;aspect=fixed;shape=mxgraph.aws4.resourceIcon;resIcon=mxgraph.aws4.organizations;labelPosition=right;" vertex="1" parent="1">
                    <mxGeometry x="110" y="380" width="78" height="78" as="geometry"/>
                </mxCell>
                <mxCell id="15" value="" style="edgeStyle=none;html=1;fontSize=21;" edge="1" parent="1" source="4" target="12">
                    <mxGeometry relative="1" as="geometry"/>
                </mxCell>
                <mxCell id="4" value="Budgets" style="sketch=0;points=[[0,0,0],[0.25,0,0],[0.5,0,0],[0.75,0,0],[1,0,0],[0,1,0],[0.25,1,0],[0.5,1,0],[0.75,1,0],[1,1,0],[0,0.25,0],[0,0.5,0],[0,0.75,0],[1,0.25,0],[1,0.5,0],[1,0.75,0]];outlineConnect=0;fontColor=#232F3E;fillColor=#7AA116;strokeColor=#ffffff;dashed=0;verticalLabelPosition=bottom;verticalAlign=top;align=center;html=1;fontSize=21;fontStyle=0;aspect=fixed;shape=mxgraph.aws4.resourceIcon;resIcon=mxgraph.aws4.budgets_2;" vertex="1" parent="1">
                    <mxGeometry x="240" y="562" width="78" height="78" as="geometry"/>
                </mxCell>
                <mxCell id="13" value="" style="edgeStyle=none;html=1;fontSize=21;" edge="1" parent="1" source="5" target="6">
                    <mxGeometry relative="1" as="geometry"/>
                </mxCell>
                <mxCell id="5" value="ManagementAccount" style="sketch=0;outlineConnect=0;fontColor=#232F3E;gradientColor=none;fillColor=#E7157B;strokeColor=none;dashed=0;verticalLabelPosition=middle;verticalAlign=middle;align=left;html=1;fontSize=21;fontStyle=0;aspect=fixed;pointerEvents=1;shape=mxgraph.aws4.organizations_management_account2;labelPosition=right;" vertex="1" parent="1">
                    <mxGeometry x="110" y="495" width="78" height="78" as="geometry"/>
                </mxCell>
                <mxCell id="23" value="" style="edgeStyle=none;html=1;fontSize=21;" edge="1" parent="1" source="6" target="22">
                    <mxGeometry relative="1" as="geometry"/>
                </mxCell>
                <mxCell id="6" value="&lt;div&gt;&lt;br&gt;&lt;/div&gt;&lt;div&gt;&lt;br&gt;&lt;/div&gt;MemberAccount" style="sketch=0;outlineConnect=0;fontColor=#232F3E;gradientColor=none;fillColor=#E7157B;strokeColor=none;dashed=0;verticalLabelPosition=middle;verticalAlign=middle;align=left;html=1;fontSize=21;fontStyle=0;aspect=fixed;pointerEvents=1;shape=mxgraph.aws4.organizations_account2;labelPosition=right;" vertex="1" parent="1">
                    <mxGeometry x="110" y="720" width="78" height="78" as="geometry"/>
                </mxCell>
                <mxCell id="9" value="" style="shape=image;verticalLabelPosition=bottom;labelBackgroundColor=default;verticalAlign=top;aspect=fixed;imageAspect=0;image=data:image/avif,AAAAIGZ0eXBhdmlmAAAAAGF2aWZtaWYxbWlhZk1BMUIAAA3ibWV0YQAAAAAAAAAoaGRscgAAAAAAAAAAcGljdAAAAAAAAAAAAAAAAGxpYmF2aWYAAAAADnBpdG0AAAAAAAEAAAAsaWxvYwAAAABEAAACAAEAAAABAAAbkAAACJoAAgAAAAEAAA4KAAANhgAAAEJpaW5mAAAAAAACAAAAGmluZmUCAAAAAAEAAGF2MDFDb2xvcgAAAAAaaW5mZQIAAAAAAgAAYXYwMUFscGhhAAAAABppcmVmAAAAAAAAAA5hdXhsAAIAAQABAAANGGlwcnAAAAzxaXBjbwAAABRpc3BlAAAAAAAAAYAAAAGAAAAAEHBpeGkAAAAAAwgICAAAAAxhdjFDgQAMAAAADFRjb2xycHJvZgAADEhMaW5vAhAAAG1udHJSR0IgWFlaIAfOAAIACQAGADEAAGFjc3BNU0ZUAAAAAElFQyBzUkdCAAAAAAAAAAAAAAAAAAD21gABAAAAANMtSFAgIAAAAAAAAAAAAAAAAAAAAAAAAAAAAAAAAAAAAAAAAAAAAAAAAAAAAAAAAAAAAAAAEWNwcnQAAAFQAAAAM2Rlc2MAAAGEAAAAbHd0cHQAAAHwAAAAFGJrcHQAAAIEAAAAFHJYWVoAAAIYAAAAFGdYWVoAAAIsAAAAFGJYWVoAAAJAAAAAFGRtbmQAAAJUAAAAcGRtZGQAAALEAAAAiHZ1ZWQAAANMAAAAhnZpZXcAAAPUAAAAJGx1bWkAAAP4AAAAFG1lYXMAAAQMAAAAJHRlY2gAAAQwAAAADHJUUkMAAAQ8AAAIDGdUUkMAAAQ8AAAIDGJUUkMAAAQ8AAAIDHRleHQAAAAAQ29weXJpZ2h0IChjKSAxOTk4IEhld2xldHQtUGFja2FyZCBDb21wYW55AABkZXNjAAAAAAAAABJzUkdCIElFQzYxOTY2LTIuMQAAAAAAAAAAAAAAEnNSR0IgSUVDNjE5NjYtMi4xAAAAAAAAAAAAAAAAAAAAAAAAAAAAAAAAAAAAAAAAAAAAAAAAAAAAAAAAAAAAAAAAAABYWVogAAAAAAAA81EAAQAAAAEWzFhZWiAAAAAAAAAAAAAAAAAAAAAAWFlaIAAAAAAAAG+iAAA49QAAA5BYWVogAAAAAAAAYpkAALeFAAAY2lhZWiAAAAAAAAAkoAAAD4QAALbPZGVzYwAAAAAAAAAWSUVDIGh0dHA6Ly93d3cuaWVjLmNoAAAAAAAAAAAAAAAWSUVDIGh0dHA6Ly93d3cuaWVjLmNoAAAAAAAAAAAAAAAAAAAAAAAAAAAAAAAAAAAAAAAAAAAAAAAAAAAAAAAAAAAAAGRlc2MAAAAAAAAALklFQyA2MTk2Ni0yLjEgRGVmYXVsdCBSR0IgY29sb3VyIHNwYWNlIC0gc1JHQgAAAAAAAAAAAAAALklFQyA2MTk2Ni0yLjEgRGVmYXVsdCBSR0IgY29sb3VyIHNwYWNlIC0gc1JHQgAAAAAAAAAAAAAAAAAAAAAAAAAAAABkZXNjAAAAAAAAACxSZWZlcmVuY2UgVmlld2luZyBDb25kaXRpb24gaW4gSUVDNjE5NjYtMi4xAAAAAAAAAAAAAAAsUmVmZXJlbmNlIFZpZXdpbmcgQ29uZGl0aW9uIGluIElFQzYxOTY2LTIuMQAAAAAAAAAAAAAAAAAAAAAAAAAAAAAAAAAAdmlldwAAAAAAE6T+ABRfLgAQzxQAA+3MAAQTCwADXJ4AAAABWFlaIAAAAAAATAlWAFAAAABXH+dtZWFzAAAAAAAAAAEAAAAAAAAAAAAAAAAAAAAAAAACjwAAAAJzaWcgAAAAAENSVCBjdXJ2AAAAAAAABAAAAAAFAAoADwAUABkAHgAjACgALQAyADcAOwBAAEUASgBPAFQAWQBeAGMAaABtAHIAdwB8AIEAhgCLAJAAlQCaAJ8ApACpAK4AsgC3ALwAwQDGAMsA0ADVANsA4ADlAOsA8AD2APsBAQEHAQ0BEwEZAR8BJQErATIBOAE+AUUBTAFSAVkBYAFnAW4BdQF8AYMBiwGSAZoBoQGpAbEBuQHBAckB0QHZAeEB6QHyAfoCAwIMAhQCHQImAi8COAJBAksCVAJdAmcCcQJ6AoQCjgKYAqICrAK2AsECywLVAuAC6wL1AwADCwMWAyEDLQM4A0MDTwNaA2YDcgN+A4oDlgOiA64DugPHA9MD4APsA/kEBgQTBCAELQQ7BEgEVQRjBHEEfgSMBJoEqAS2BMQE0wThBPAE/gUNBRwFKwU6BUkFWAVnBXcFhgWWBaYFtQXFBdUF5QX2BgYGFgYnBjcGSAZZBmoGewaMBp0GrwbABtEG4wb1BwcHGQcrBz0HTwdhB3QHhgeZB6wHvwfSB+UH+AgLCB8IMghGCFoIbgiCCJYIqgi+CNII5wj7CRAJJQk6CU8JZAl5CY8JpAm6Cc8J5Qn7ChEKJwo9ClQKagqBCpgKrgrFCtwK8wsLCyILOQtRC2kLgAuYC7ALyAvhC/kMEgwqDEMMXAx1DI4MpwzADNkM8w0NDSYNQA1aDXQNjg2pDcMN3g34DhMOLg5JDmQOfw6bDrYO0g7uDwkPJQ9BD14Peg+WD7MPzw/sEAkQJhBDEGEQfhCbELkQ1xD1ERMRMRFPEW0RjBGqEckR6BIHEiYSRRJkEoQSoxLDEuMTAxMjE0MTYxODE6QTxRPlFAYUJxRJFGoUixStFM4U8BUSFTQVVhV4FZsVvRXgFgMWJhZJFmwWjxayFtYW+hcdF0EXZReJF64X0hf3GBsYQBhlGIoYrxjVGPoZIBlFGWsZkRm3Gd0aBBoqGlEadxqeGsUa7BsUGzsbYxuKG7Ib2hwCHCocUhx7HKMczBz1HR4dRx1wHZkdwx3sHhYeQB5qHpQevh7pHxMfPh9pH5Qfvx/qIBUgQSBsIJggxCDwIRwhSCF1IaEhziH7IiciVSKCIq8i3SMKIzgjZiOUI8Ij8CQfJE0kfCSrJNolCSU4JWgllyXHJfcmJyZXJocmtyboJxgnSSd6J6sn3CgNKD8ocSiiKNQpBik4KWspnSnQKgIqNSpoKpsqzysCKzYraSudK9EsBSw5LG4soizXLQwtQS12Last4S4WLkwugi63Lu4vJC9aL5Evxy/+MDUwbDCkMNsxEjFKMYIxujHyMioyYzKbMtQzDTNGM38zuDPxNCs0ZTSeNNg1EzVNNYc1wjX9Njc2cjauNuk3JDdgN5w31zgUOFA4jDjIOQU5Qjl/Obw5+To2OnQ6sjrvOy07azuqO+g8JzxlPKQ84z0iPWE9oT3gPiA+YD6gPuA/IT9hP6I/4kAjQGRApkDnQSlBakGsQe5CMEJyQrVC90M6Q31DwEQDREdEikTORRJFVUWaRd5GIkZnRqtG8Ec1R3tHwEgFSEtIkUjXSR1JY0mpSfBKN0p9SsRLDEtTS5pL4kwqTHJMuk0CTUpNk03cTiVObk63TwBPSU+TT91QJ1BxULtRBlFQUZtR5lIxUnxSx1MTU19TqlP2VEJUj1TbVShVdVXCVg9WXFapVvdXRFeSV+BYL1h9WMtZGllpWbhaB1pWWqZa9VtFW5Vb5Vw1XIZc1l0nXXhdyV4aXmxevV8PX2Ffs2AFYFdgqmD8YU9homH1YklinGLwY0Njl2PrZEBklGTpZT1lkmXnZj1mkmboZz1nk2fpaD9olmjsaUNpmmnxakhqn2r3a09rp2v/bFdsr20IbWBtuW4SbmtuxG8eb3hv0XArcIZw4HE6cZVx8HJLcqZzAXNdc7h0FHRwdMx1KHWFdeF2Pnabdvh3VnezeBF4bnjMeSp5iXnnekZ6pXsEe2N7wnwhfIF84X1BfaF+AX5ifsJ/I3+Ef+WAR4CogQqBa4HNgjCCkoL0g1eDuoQdhICE44VHhauGDoZyhteHO4efiASIaYjOiTOJmYn+imSKyoswi5aL/IxjjMqNMY2Yjf+OZo7OjzaPnpAGkG6Q1pE/kaiSEZJ6kuOTTZO2lCCUipT0lV+VyZY0lp+XCpd1l+CYTJi4mSSZkJn8mmia1ZtCm6+cHJyJnPedZJ3SnkCerp8dn4uf+qBpoNihR6G2oiailqMGo3aj5qRWpMelOKWpphqmi6b9p26n4KhSqMSpN6mpqhyqj6sCq3Wr6axcrNCtRK24ri2uoa8Wr4uwALB1sOqxYLHWskuywrM4s660JbSctRO1irYBtnm28Ldot+C4WbjRuUq5wro7urW7LrunvCG8m70VvY++Cr6Evv+/er/1wHDA7MFnwePCX8Lbw1jD1MRRxM7FS8XIxkbGw8dBx7/IPci8yTrJuco4yrfLNsu2zDXMtc01zbXONs62zzfPuNA50LrRPNG+0j/SwdNE08bUSdTL1U7V0dZV1tjXXNfg2GTY6Nls2fHadtr724DcBdyK3RDdlt4c3qLfKd+v4DbgveFE4cziU+Lb42Pj6+Rz5PzlhOYN5pbnH+ep6DLovOlG6dDqW+rl63Dr++yG7RHtnO4o7rTvQO/M8Fjw5fFy8f/yjPMZ86f0NPTC9VD13vZt9vv3ivgZ+Kj5OPnH+lf65/t3/Af8mP0p/br+S/7c/23//wAAABNjb2xybmNseAABAA0ABoAAAAAOcGl4aQAAAAABCAAAAAxhdjFDgQAcAAAAADhhdXhDAAAAAHVybjptcGVnOm1wZWdCOmNpY3A6c3lzdGVtczphdXhpbGlhcnk6YWxwaGEAAAAAH2lwbWEAAAAAAAAAAgABBQECgwQFAAIEAQaHCAAAFihtZGF0EgAKBhgiL/f2FTL5GkRkAYYUwbkzg6ZJkmcrFARgJzHh9qeeum1Ewqkb92dpZXn7+khw7EJtOz0QSzCcV/LS+gS3+dmlfoOZm3qu0bHTnHf47QEgxEUTm6NNRVJOuvtGEP4OGSQRAX30hVP4yQ23bGZPwayf46sC9MCe2aBzF2FI4v1EKML82LhWPsKM78gfpufUUatZ8LBYQAhQDp9KQcdFZAyOkO1fh1QBT0eL/pFKbZJ3Xq41ZTBDGc2/JaNyIrBpxl76aqDzNmVxc7/zSUz/5t7KT/BUrV4URV9W9yy/a7bDitvw2l0hQu8o01g48/N1UsNcqZZ1MnxYMWOmb8hye8QoIIW5N1v0Q9LkiYhsGGzEdHLrs1iHe4Iku//9QLfnYtgmaVh44+hXNmwn1NfVwn2VW5BDi8EWlGXWzIx6ucXXIl7Zq85QfPEDQ4QokQhUIp/ffyAtpkr5g6OXtuVu1MUUv5H6pCSZDt0dSKDx+fNCSa1fMJOownW8glIOKK337LImxo8+do4r1ijQH/AYpplPdHmy9Yl7Djo3aC9cUwm/UhFZ/pguArVUBMrLwTbokrkgXQuNisAt7utlcrjwo1J6XtzrHOGkKUpN1i08Ekm83RrEQHF5AUzOYFndH/OznIA8+dpge5sB1VSLoYGQFjCPGzFzJEZNCRFFdTdQuWvPhbu+rubDfV1lqGYG6mVEAFo6IhuSiwwF7ztrK9C+RcRdGtD/U8Z/dROVeS8GPTqFy44OEr8JWsqVn6tZr7K5s/kCNNGjx0fxyxKPJwA2ObYNhv0vf1578Jxqvbt62dv6qp2WgxtzReQfUP9G/asGSnCADaWNrVBw6jXxkY33AKJOpL9NXyzls1PPgjOFNKF4DX28gzlh83sg+sF/WckibPHsDVNPiqJkZlkyUSLlKVqaRrkmwzEUlkYPMhe51x+S8lQxBbmuHkIxxFQqvHhV9C8iV/XE/dz6BXqFi9TukrMD1qp9HQh/9mga4DTidKf9m+Rd4SnG6QNa5KSoA6zHt7UDY1xm2kAtNicQXocOJ+tpkgLi/Cc/AvH57ndvozLxrf+nBQ0PubTSSknLUYGtQjvQjH7LSdcdsMeJdBJQeFEhZbV7M3YEMAfibq+LEePPZPlPddRE2Pz78TS4QwnCwhrpXtLAm93LfJiURrP1r5IupR8gSpWDj/jWArnUnJc7gnXQN3D+gX5iOtytsqxlDLJdHft00OPsRvzdTHrEM/fr9LjtjAcudCMZCgw83LnhRmYPpOTQ2p0v9Hlb0jIgKYTfpmlyJgp7S9jHSDJBWF4pXPtf55MEIdcII66zUHGnJBYlzau0TUyUWQZTG8Frl7LIhQcdRaPkq8Ry8IDM4iuVjoRtHqIP4yDNQ8oTPmfQOjTRfEyourNb8bRybMUYOH3ZSZiSiXaqQ9/veuUVH+BviisUkDcKYEYrctcTR0R0RxUfpEEvnzEe4dJiBS2syxZeEOEdirEFD+0TFEJv1k/fu90oSCohJQkB6jb4jcC+ugKvVVAgMXYI0KYGRJI7M565g2OHm3DZXJXzzZSAKLCuIn7dObLnxMimvslzylucghByXCUUUVB3iiK2TyoQmmWlI594yukDcv+3k/Wyu6oU4P051B3fiAwfdfK3eaoWJqi1N5HqVh2QRabb0RBJqrDF7lIP0vQlRbQyz9wOFknsVKet5oomxCPm6N6HBqn1vD/JNJsg1KqJPGMtQ5lkF7Lxw32Na0XR4mkQ+/jlCTXmoGPGBHA+pZFkahamyw6TenWf/tZscBqxLBGDs9G2kZgiChgU6cAwcV/wL3VTAmQNZhlfgvPJjdiNSyUAZoqaz6P/o00wROC79zgBfFN0iixtfG3oYUf8JOex7YFmMkwfziV2ZgomINgg4P06WUXpkmpG0RhvVZnV56+I9PzmTepiKm7xXo9FUUBsg+VtebNUb8wTOMpke4qH3o1NxMONX33QBP1kYd+VqoS4c9zFIA8qYzjYQ7NWfLbUDRa2s9qe3bodYMztJczFywIhSKuKAmlrtnnT94pyhZCossV0IBmc4zUdZdtHCF0npyG7nJRNckh/NM2mdiPgIIdsDUYRIBph8YPWVLmJP/8tqoqTlyYhhKEHdyCeEwoVrhpvLFsQY92opMoKJBuimfzBnW6pq3nSS8ScbKa6WG1+2MosK16TU2T3drpuHPeqLV232JDskVg2rITNZnGNl34R/sU+zCtGCwRVjVeWit9odL3MS4/zH1KCLXAAwnDj026jAU3EzCzz2mTvSUOtY7MHfR6WqzH8XVOlo1nT1dmfcKckJbTWRk+MAfvsOG8wdb5JCLJ+2gvmx2Ibfe75thZoCIxjjOI/neoJWu/Yt0w+tSQBf+gDKSoEBNucX0jl6Nlw7rEKvhFjObzXDMq/yO77X+9e3wqfeOsXZfhvbvfdAR+l2ru8fMSk5oY/0tmMPQoP/518ToH9pJluOrxcKKHQJasHUaI1Qs42nEhTeIPstBjGi+quBOFlfOArqwDWRVfk4Fwe8HzsInfKWcNjQ2r9pLey4S7Y+vRjfRPipub8miCCFhUw89fBW0MHp3HNLODqQMXSc+yqRXkOMTMAawU50yhYWF89kD9avdqc5ISFrf0l7nofMPThs8Y8IYEseY/sHUU8n5K7cW2Gsv/6r+SjJZoJgPmEnzoL/E3PRBKFEqqvcthNbCvd5HRp4bp5qQD4+sDgmz+8zidNZ1xSmEk7hUGu/RjKkQMZGXpQNcfC/ECCnIKKveMy8ciBxubIYi8sHVQ0LJUKxuJR7TU59jAi0ajfAdxeMbqwKg7/KVXYMje9HrM71hSBVyUVBBymkORvQmZZWhr+Kxt0aIe5lxOPKkPc3cYUBop55ymm04Ga50rxPta3Zuzy5YQAL+RfKphdDSLGEzYE6+ZzmAFkk7lizbQYSiBDtXVgw35xe/Fsfjpx4Ae57H5Da/n5W8cJ1O6oHDtywNM80wmXUrIGrtca/+bJIKLmVRcL9boFaTUbTqhS/72wvysCeVoaZZNRZ+osSiETR2tNiyhVw1tiMGVkJSSINb6c/aqlcYQFEOX4DKFYockUNUVkmNuuGVPBOVIFoFuJUsJzZ9xXSAYqTB0LGNLYq+LORNJKuSrhYAIRRVtitC55Hd/H0BfbpvNAnmaG1Ur2M8eHZg24Y/IcDirBP0BpBFZ2IRvAI4n7iOweQceq8/Flo99RYxOMdnbO9PvSpT5O0R4EGF+qD1nogRes3Q5CWAYGJouA0YF8pcpo1z5ClVsnXEjDZnhkHM74FsFKtDK5bCeUz1Ax/tU4ZwwWT/9BTuBdL11yBBLdCti/17aLaskdZ6xAi4rzhziPFyVE6LyQsw/I/hR0b3GpbKDRfkPvYZ1jb0wY9Uiw/Mx7ZhWUqBZaYIffwYz7racyEstd+WM+C1eRJu+PHiXuVqeD2XgWtxNMxMlufn6Pg1s7YBQbZxi/dBM/1P1Xmja/kOeC0+hiqTTKKsjS/V/23orweqo2cWMGqpjujcsU0u+4gcI3n2CMq1Sl67ksBYlfzsf9k/z6duDo4MAAAAAAAAAAAvnVx6nvr18jXi8g7QfGHTHt1QKYGvQPb9KxOfx8ZSLcAvXMNHbx4YDaMJr51Y3dBR0X18z70Sh0GZb/SkW6vnmdxt+sbxt9LsBjjxUlA+gLQ4ph7SfBKGWjoXi0kd7XuzVKjKyffVjHYUR3KE7TogpocFfg0aMfUDU3TeFL88g8YVdgaqFb506kKV1qwD6+C7EFFWem4vPPq38/rphEoJAeaWM2lwIagAAAAAAAt+4H9MbUOR/wXoXNqFe4aHud/LdF1GdS6+ZVzEzEThPx81yqicP42bJxgJNplbDdvmqbwWTS37vngCRDQSxENzXxCxTAxVO/+Sh9+n2jawhbZ1pm8X7g2pFH4A234syLCtjCxf0X+Cga+EvrnJZLow79BcAroh9merf9HKS/Qpt2m6J9hen+goOntqXEqXK9yT42DbYK027DVYAh/GrAP/3SVcvDiHn5uNBIT2OhEXUenxy/EtXrnhNjtGU+Z2kN9e1KJYHbeMsvHargtTYDORyD1rcs1xXTejWLUaiAna78FrO4MjBOIZyOUP1hzVrlp/D5q7cwQGqJ9YYjbXwPpzXafnmUBEtrwKwe+8dzoumZiTUpHeSa2l5ME1/vUAJmWq4UM6MTjss4M7tGbeX1OpFt1Y4P8P+AW7b8ydH9oiZJe80lfgTI3EdQyhm84p0RF6t37qwxd3LMmOq6TEMtS2fJYRxu4g+5/jJqwuvJz11+d74+/wcUhuJBSX9WHP/t4YBOngNjoaz/P0p4+fQmp+Ljo1CN4GJ7Iexssc5SfBhyYJxC7snEhnYGyz3wGMwvXMf8GVjcc0AGaM+wAYksD0k+6Wfn4wFUtxDSYBRhZtqLpZzxef3kCXx39cnJqWpm0jasru3IrEZeHi752a/2JHAqQQ8fNmDYrCFUU9Gc8Z6gllkJklrd/Fm1ejkReoXUWlutsZTzUGlFhotgwdI4FeHxk8k+RHXUh+FEcf/7RjMJVEUJ8icwtWgXe2Xb4J9USV3bUcfoYS4jR5PUQRUOM47nlYEKEYVGKFGYKZOCSh40AIroKQi6EgAKChgiL/f2CAhoNCAyiRFEZABhhhhAwbY1stNQfwJp7EIAtoxH3hse22qoW8lYJd/SjMn5/NcndXc/XxVrA+6Gx/oW5nIpaaVJnFroAGP+iDdh6fINWRYnQUh9CsIiv9vrIWXj1cw+FpzH9wE6uO4Z53KE2bgQ8KUH9dCGkei+weV9a2xKLfntGLP7drnzUaPboJY5tzPbx63TQoTevp6bwnxd0kAHiW9Jnw9tsmeX82B7ECuPQJtx6ZKmIW2xNuB938SIuGQwxRQmo4j5ecXwHpILHZpHZMIhQbck2kLv6ViBbtmI0HWVkMFU9vmbjEZP7cn5wmIflvggsN9MU/o/677+7QcDqQP6VGMuv+DX1YCWipAty5bUFipgtF+6kBVkubvmIDHYG63HhTXz7WVXIkfYKpxnsOoSJzb9aaWttGkUYeo0GYH+wTFDEYnlvqYGXYmL95tJOiqKKzU3jhHX/cRAMxGWNQQ2f7Mj51navdC3F4XJO5/0XBl9B9HaVCXFKnguGCzZ//61/WFm9eO77PXO5zd4xc3j98PPeJAhXJpT72tCwmSyYGy9bXJSTRDCP8xD/B6rOK06uiNch+1nrQ0H86gokhDzj6CgrwtRzS+Sontv0beV2tq02NZDUf4CL7aTjVOL3bXq9LCykNrJp+/fv5SVKWsV5rPYPwZCdCZgSc8JoVHBDBZOvoxN32Z+e0KgxmPz55YTHn240F+vTok67foAobu6qn0v8r+nQpb4mgi97dVi2MAmmyOhA0sc3+a3+KB2y8uCLNuN/2KklWMQXbGAXpzzyvK1tkrC/Xg8Vd5t1jU6H0cGeYYRQa4e9QmA//9nmK/+hHHcZeqvjl0ct1IBZOvePNDWktpJ0I0eDm3biiklChqNymRpwyAX5ojSlRy8n9GAuARs58RaEX/VfKla2xqbyGwyQlT6mq2FfCeEKH9+2W0vpELXxaRVuDArv06L1dSmx4zD7mlbKus0sccLPkXaHynIfxK0uD1VQBZgEPjTMHSYbK5TTL/mj9NZgBbAhac0k2I3YqVFgexR8fLb658d3D0NNWbD6ismcqB5Q1h5zbrTVO3ihRaCotiok0RQLyb3SGUF0ll+arTjlKDN7KDk/vIL/xeWbmmUcjB9lbiU8z8M5Cl9YE9hBQboNPEfp+DR5CLDw1/j/+y3POJWw3/SmTy2ICZCqOvEO6PIq3v0geTCPlcy2vbfJWBUpAvYOEtnRviQejBdDR4Btqpyz9QkIgl0Akz2ZNRHhSO00Alv62r7/ByhCm9jtcjU1Wv8EFFVk9wqB3LPbneXRXMIaHwvaPYp/WWgErPmIf94WQf8712Qs/wOEeqvkoiIcBe8xLXb31AGmGVrYI7iJtj6JD/n2zK0/N2VJZwsh5lPyuPLfFFockEwT41zb2ap8nCo2YZ0LWP7yWxBqYEm6PkyEq3s0OfBJj83PhZaN5xEpUyrJAZcNut++RZYz/f34+4MMnYR9qTBOPGJnBjDwXZ5LDDHjL4KzJPBYmKeMBF+nNvtHf6OPbWYS9zszJKH+jk4QVyvVjA21Y4pNNBbP4cDh49njpo9cNE4Q5t1oic1GzESj4wnrdFhypmhn9pML9BgW/fw3XpaLUZffKmZUr7sLj9fpFRo5gAxbBoNHy5SEmlC8YXDeWtaVKmaq9REw63kw/kOkzc6g44D3aNOkQ2nX//9+cu5teT/pBA/SUFh5w8DkP5xyTRctP06aowv3tfWvgJQnRgtgxSb/CVZbK3SzmZeeGMLQdcxsIap0T9barbFUe6Bb0ZFhQsPKaSQC7wUeOSog3hV0+Wchzk0uezMY4r9VirVSbtBjloCi+7OYlRd6fEMKO7aUz8JmZ6raFr+57/R8tQ8Z262/GJgjCVe3k4UCVIErS6SmghANRA6twnYYV9JqKwqR5T6p/wyXP9zVTn/2GUXFVAedT1iJBlvJpIZgGIcGlOH9EgTomYJ+QRMayNYFJnTwRtBb6BzFHUWEOzfB1H92X2f7+QFiVv/EuqojKEVjAVgSLIfqrZGHdNPNB1wA5dvQOSdS7HNqPCGrpW6wugruWMLUT+/coppRr7YwdhDnG/Rqfehoe70Q/x8/dTmMruPaiLCtQI72fRM9FqtQiBLI4uLRv1La5uEmd352JiSkAUra5B4tJVh4bXOGmpJ/hPKml2Qw+Eadp/X3ohui4Vqo6LvzVQLoailH6+ffbwk9onViwGSrT1QRQcWO/yUAAAAAAAAAJDgc33lwLhaM2f0MD9EYGv/B/tXrUY29ScCxTwr9AUiUWF69qPay8IXOoETUtkrTPtq1IGvK5b8QH7a5IgBVn5VGFBPncGJZ6P1LbolaUS0ADnkoSYlQqujPabqklr/R+eYf6YFRoHMCRB8UU275Y4rOr5fqVn9vU2HEj676E2CdPTlNaSI7z/tlZnh8M1ZrOstGQcuxwEh9vbcfEffgBatOUXok5b1EgjGTNsq0u28r1y9ZXzA/OSMHMCT0emIvXpu7Ft7HgJT9CsnNYPHJonosXwXiVZAEBGnH/7eHidhscWtA8qL76w1I8LnndOrLqjP87GIIDW/T9Tqj1p8E3AqLVNLlKY8A7uZgX1DAfHNHhJGbmMYwRY/MBJRfimLhUX2XXAOvSPgyuN/dr6DPR2QUU45ps2gpLFHduHryW8/db3ZpecJchstDco7+B0ni+AHtAowlzBYbDEiZ6p3h6ldl3XDGy8zt2K/rIQg1sBF1rm/QOFhd+wo+9rxldluT7oKSxGPu5D90UBUG31/IaRCVrrzgiPkdM9y/5o4YZXnTqA3ekBzwrGgagLhpxvE2oZMTYCaT2D2RFhJ5owwVmJx4GBFWa8b9rKCtQdMdrc1XBcoOqpUUmqenZJav+eLwXbRWhtwjcUTgspxBrmtGQHQYzMClUCgjQrsPmD01Z3RTJNjXy+Q;fontSize=21;" vertex="1" parent="1">
                    <mxGeometry x="600" y="560" width="80" height="80" as="geometry"/>
                </mxCell>
                <mxCell id="17" value="" style="edgeStyle=none;html=1;fontSize=21;" edge="1" parent="1" source="10" target="9">
                    <mxGeometry relative="1" as="geometry"/>
                </mxCell>
                <mxCell id="10" value="Chatbot" style="sketch=0;points=[[0,0,0],[0.25,0,0],[0.5,0,0],[0.75,0,0],[1,0,0],[0,1,0],[0.25,1,0],[0.5,1,0],[0.75,1,0],[1,1,0],[0,0.25,0],[0,0.5,0],[0,0.75,0],[1,0.25,0],[1,0.5,0],[1,0.75,0]];points=[[0,0,0],[0.25,0,0],[0.5,0,0],[0.75,0,0],[1,0,0],[0,1,0],[0.25,1,0],[0.5,1,0],[0.75,1,0],[1,1,0],[0,0.25,0],[0,0.5,0],[0,0.75,0],[1,0.25,0],[1,0.5,0],[1,0.75,0]];outlineConnect=0;fontColor=#232F3E;fillColor=#E7157B;strokeColor=#ffffff;dashed=0;verticalLabelPosition=bottom;verticalAlign=top;align=center;html=1;fontSize=21;fontStyle=0;aspect=fixed;shape=mxgraph.aws4.resourceIcon;resIcon=mxgraph.aws4.chatbot;labelPosition=center;" vertex="1" parent="1">
                    <mxGeometry x="480" y="562" width="78" height="78" as="geometry"/>
                </mxCell>
                <mxCell id="16" value="" style="edgeStyle=none;html=1;fontSize=21;" edge="1" parent="1" source="12" target="10">
                    <mxGeometry relative="1" as="geometry"/>
                </mxCell>
                <mxCell id="12" value="SNS Topic" style="sketch=0;points=[[0,0,0],[0.25,0,0],[0.5,0,0],[0.75,0,0],[1,0,0],[0,1,0],[0.25,1,0],[0.5,1,0],[0.75,1,0],[1,1,0],[0,0.25,0],[0,0.5,0],[0,0.75,0],[1,0.25,0],[1,0.5,0],[1,0.75,0]];outlineConnect=0;fontColor=#232F3E;fillColor=#E7157B;strokeColor=#ffffff;dashed=0;verticalLabelPosition=bottom;verticalAlign=top;align=center;html=1;fontSize=21;fontStyle=0;aspect=fixed;shape=mxgraph.aws4.resourceIcon;resIcon=mxgraph.aws4.sns;" vertex="1" parent="1">
                    <mxGeometry x="360" y="562" width="78" height="78" as="geometry"/>
                </mxCell>
                <mxCell id="14" style="edgeStyle=orthogonalEdgeStyle;html=1;entryX=0;entryY=0.5;entryDx=0;entryDy=0;entryPerimeter=0;fontSize=21;" edge="1" parent="1" source="6" target="4">
                    <mxGeometry relative="1" as="geometry"/>
                </mxCell>
                <mxCell id="20" value="" style="rounded=0;whiteSpace=wrap;html=1;gradientColor=none;fillColor=none;strokeColor=#FF4766;fontSize=21;" vertex="1" parent="1">
                    <mxGeometry x="100" y="700" width="480" height="220" as="geometry"/>
                </mxCell>
                <mxCell id="22" value="" style="sketch=0;points=[[0,0,0],[0.25,0,0],[0.5,0,0],[0.75,0,0],[1,0,0],[0,1,0],[0.25,1,0],[0.5,1,0],[0.75,1,0],[1,1,0],[0,0.25,0],[0,0.5,0],[0,0.75,0],[1,0.25,0],[1,0.5,0],[1,0.75,0]];outlineConnect=0;fontColor=#232F3E;fillColor=#ED7100;strokeColor=#ffffff;dashed=0;verticalLabelPosition=bottom;verticalAlign=top;align=center;html=1;fontSize=21;fontStyle=0;aspect=fixed;shape=mxgraph.aws4.resourceIcon;resIcon=mxgraph.aws4.ec2;" vertex="1" parent="1">
                    <mxGeometry x="110" y="830" width="78" height="78" as="geometry"/>
                </mxCell>
                <mxCell id="24" value="" style="rounded=0;whiteSpace=wrap;html=1;gradientColor=none;fillColor=none;strokeColor=#FF4766;fontSize=21;" vertex="1" parent="1">
                    <mxGeometry x="100" y="480" width="480" height="200" as="geometry"/>
                </mxCell>
            </root>
        </mxGraphModel>
    </diagram>
</mxfile>